<?xml version="1.0" encoding="UTF-8"?>
<svg version="1.1" xmlns="http://www.w3.org/2000/svg" width="32" height="32">
<path d="M0 0 C10.56 0 21.12 0 32 0 C32 10.56 32 21.12 32 32 C21.44 32 10.88 32 0 32 C0 21.44 0 10.88 0 0 Z " fill="#FEFEFE" transform="translate(0,0)"/>
<path d="M0 0 C7.51953125 -0.390625 7.51953125 -0.390625 10 0 C12.31326237 2.36366025 12.94080124 3.6522073 13.5 6.9375 C13 10 13 10 11 12.875 C6.96957293 15.72988584 4.84275759 15.41040319 0 15 C0 10.05 0 5.1 0 0 Z " fill="#000000" transform="translate(2,8)"/>
<path d="M0 0 C1.65 0 3.3 0 5 0 C5.33 0.66 5.66 1.32 6 2 C6.33 1.34 6.66 0.68 7 0 C8.98 0 10.96 0 13 0 C12.484375 0.7425 11.96875 1.485 11.4375 2.25 C9.81679961 4.77067026 9.81679961 4.77067026 10.125 6.9375 C11.29388809 9.69273621 12.61382272 12.3481826 14 15 C11.6875 15.25 11.6875 15.25 9 15 C7.1875 13 7.1875 13 6 11 C5.67 12.32 5.34 13.64 5 15 C3.35 15 1.7 15 0 15 C0 10.05 0 5.1 0 0 Z " fill="#000000" transform="translate(16,8)"/>
<path d="M0 0 C0.99 0 1.98 0 3 0 C3.6875 1.8125 3.6875 1.8125 4 4 C2.625 5.75 2.625 5.75 1 7 C0.67 7 0.34 7 0 7 C0 4.69 0 2.38 0 0 Z " fill="#F9F9F9" transform="translate(7,12)"/>
</svg>
